# xmcd
#
# Track frame offsets:
#	150
#	15822
#	32180
#	48200
#	65065
#	87172
#	101100
#	113402
#	129800
#	143982
#	156885
#	173462
#	192642
#	206772
#
# Disc length: 2995
#
# Revision: 1
# Processed by: cddbd v1.5.1PL0 Copyright (c) Steve Scherf et al.
# Submitted via: VisiTrax 2.9.3.171 - For more info visit www.synapsa.com
# Normalized: r0:DSETVAR1
#
DISCID=b40bb10e
DTITLE=Various Artist - Mr Music Country 2-01
DYEAR=1900
DGENRE=
TTITLE0=Collin Raye and Joe Diffie - Honky Tonk Heroes (Like Me)
TTITLE1=Dixie Chicks - Sin Wagon
TTITLE2=George Jones - Am I Losing Your Memory Or Mine
TTITLE3=Ricochet - Don't Forget To Feed The Jukebox (While I'm Gone)
TTITLE4=Patty Loveless - Thirsty
TTITLE5=Johnny Cash and Merle Haggard - I'm Leavin' Now
TTITLE6=Rick Trevino - City lights
TTITLE7=Kieran Kane with Somebody's Darling - So Many Miles
TTITLE8=Charlie Daniels - Back In The Saddle Again
TTITLE9=Tammy Wynette - I'm Only a Woman
TTITLE10=Honky Tonk Heroes (Willie, Waylon, Kris and Billie Joe) - Oklahoma Wind
TTITLE11=Merle haggard - Call Me
TTITLE12=Tammy Rogers - Oh, Heartache
TTITLE13=Travis Tritt - Southbound Train
EXTD=
EXTT0=
EXTT1=
EXTT2=
EXTT3=
EXTT4=
EXTT5=
EXTT6=
EXTT7=
EXTT8=
EXTT9=
EXTT10=
EXTT11=
EXTT12=
EXTT13=
PLAYORDER=
